
<svg xmlns="http://www.w3.org/2000/svg" width="512" height="512" viewBox="0 0 512 512">
  <rect width="512" height="512" fill="#ffffff"/>
  <rect x="40" y="40" width="432" height="432" rx="108" fill="#ffffff" stroke="#DDF3FF" stroke-width="18"/>
  <circle cx="392" cy="120" r="42" fill="#EEF9FF"/>
  <path d="M86 360c45-26 86-26 130 0s86 26 130 0 78-27 112-8v64c-35-19-72-16-112 8-44 26-86 26-130 0s-85-26-130 0z" fill="#DDF3FF"/>
  <path d="M94 348c43-25 82-25 124 0s81 25 123 0 76-26 109-8" fill="none" stroke="#2F9FE8" stroke-width="18" stroke-linecap="round"/>
  <path d="M128 164c48 0 91 13 128 40 37-27 80-40 128-40v170c-48 0-91 13-128 40-37-27-80-40-128-40z" fill="#ffffff" stroke="#0E4A7B" stroke-width="22" stroke-linejoin="round"/>
  <path d="M256 204v170" fill="none" stroke="#0E4A7B" stroke-width="18" stroke-linecap="round"/>
  <path d="M158 218c30 2 55 9 74 22M158 266c30 2 55 9 74 22M354 218c-30 2-55 9-74 22M354 266c-30 2-55 9-74 22" fill="none" stroke="#2F9FE8" stroke-width="14" stroke-linecap="round" opacity="0.88"/>
  <path d="M134 160c46 0 88 13 122 39 34-26 76-39 122-39" fill="none" stroke="#DDF3FF" stroke-width="12" stroke-linecap="round"/>
</svg>